<?xml version="1.0" standalone="no"?>
<!DOCTYPE svg PUBLIC "-//W3C//DTD SVG 1.1//EN" "http://www.w3.org/Graphics/SVG/1.1/DTD/svg11.dtd">
<svg xmlns="http://www.w3.org/2000/svg" xmlns:xlink="http://www.w3.org/1999/xlink" version="1.1" id="Layer_1" x="0px" y="0px" viewBox="0 0 689.6 201.3" style="enable-background:new 0 0 689.6 201.3;" xml:space="preserve" width="180" height="52.604">
<style type="text/css">
	.st0{fill:#FFFFFF;}
	.st1{fill:#007FD3;}
	.st2{fill:#535352;}
</style>
<g id="XMLID_00000018239036226373943510000001515829315789172925_">
	<rect x="563.8" y="11" class="st0" width="110.8" height="88.9"/>
	<path id="XMLID_00000118381410983265565440000018038086625633195425_" class="st2" d="M58.7,191.5c-0.7,2.8-2.2,5.1-4.6,7   c-2.3,1.9-4.9,2.8-7.7,2.8h-39c-2.1,0-3.8-0.7-5.3-2.2c-1.4-1.5-2.2-3.3-2.2-5.3c0-0.7,0.1-1.4,0.2-2l17.9-72.1   c0.6-2.4,2.1-4.6,4.6-6.6c2.5-2,4.9-3,7.3-3h39c2.3,0,4.2,0.7,5.7,2c1.5,1.3,2.2,3.1,2.2,5.3c0,0.8-0.1,1.6-0.3,2.5l-3.2,13H47.8   l1.8-7.5c0.1-0.6,0.2-1.1,0.2-1.5c0-1.3-0.6-1.9-1.9-1.9c-1.6,0-2.7,0.2-3.3,0.5c-0.9,0.4-1.5,1.3-1.8,2.6l-15.3,61.4   c-0.2,0.4-0.2,0.8-0.2,1.1c0,0.8,0.2,1.3,0.7,1.5c0.5,0.3,1.5,0.4,3.1,0.4c1.7,0,2.8-1.1,3.3-3.4l1.9-7.5h25.7L58.7,191.5z"/>
	<path class="st2" d="M128.4,191.5c-0.7,2.7-2.2,5.1-4.6,7c-2.3,1.9-5,2.8-7.9,2.8h-39c-2,0-3.8-0.7-5.3-2.2   c-1.4-1.5-2.2-3.3-2.2-5.3c0-0.7,0.1-1.4,0.2-2.1l12.5-50c0.6-2.4,2.1-4.6,4.6-6.6c2.4-2,4.9-3,7.4-3h39c2.2,0,4,0.7,5.5,2   c1.5,1.3,2.2,3.1,2.2,5.3c0,0.8-0.1,1.6-0.3,2.5L128.4,191.5z M104.1,186l9.6-38.6c0.2-0.6,0.2-1.1,0.2-1.5c0-1.3-0.6-1.9-1.8-1.9   c-1.6,0-2.7,0.1-3.3,0.5c-1,0.4-1.6,1.2-1.9,2.6L97,186.3c-0.1,0.4-0.1,0.8-0.1,1.1c0,0.8,0.2,1.3,0.7,1.5c0.5,0.3,1.5,0.4,3.1,0.4   C102.3,189.4,103.5,188.2,104.1,186"/>
	<path class="st2" d="M193.5,201.3H168l0.9-3.4c-0.6,0.6-1.2,1.2-1.7,1.8c-0.9,0.8-1.9,1.3-3,1.6h-20c-2,0.2-3.8-0.4-5.1-1.9   c-1.4-1.5-2.1-3.3-2.1-5.4c0-0.7,0.1-1.5,0.2-2.3l12.7-50.6c0.7-2.7,2.1-4.8,4.3-6.5c2.2-1.7,4.6-2.5,7.4-2.5h23.7l5.5-22.1h25.5   L193.5,201.3z M171,189.6l11.4-45.9h-4.9c-1.9,0-3,0.8-3.4,2.5l-10,40.3c-0.2,0.8-0.1,1.5,0.3,2.1c0.4,0.6,1,1,1.7,1H171z"/>
	<path class="st2" d="M268.5,191.4c-0.7,2.8-2.2,5.1-4.6,7c-2.4,1.9-5,2.8-7.8,2.8h-39c-2.1,0-3.8-0.7-5.2-2.2   c-1.4-1.5-2.2-3.3-2.2-5.3c0-0.7,0.1-1.4,0.2-2.1l12.4-50c0.6-2.4,2.1-4.6,4.6-6.6c2.5-2,4.9-3,7.4-3h39c2.3,0,4.2,0.7,5.7,2   c1.5,1.3,2.2,3.1,2.2,5.3c0,0.8-0.1,1.6-0.3,2.5l-7.6,30.7h-32.6l-3.4,13.7c-0.1,0.5-0.2,0.9-0.2,1.1c0,0.8,0.3,1.3,0.7,1.5   c0.5,0.3,1.5,0.4,3.1,0.4c1.7,0,2.8-1.1,3.3-3.4l1.9-7.5h25.7L268.5,191.4z M250.6,160.7l3.3-13.3c0.5-2.3,0-3.4-1.7-3.4   c-1.6,0-2.7,0.1-3.3,0.5c-0.9,0.4-1.5,1.3-1.8,2.6l-3.4,13.7H250.6z"/>
	<polygon id="XMLID_00000069373667362023901460000011388876648805886395_" class="st2" points="300.1,201.3 274.6,201.3 297.4,110    322.9,110  "/>
	<path class="st2" d="M375,191.4c-0.7,2.8-2.2,5.1-4.6,7c-2.4,1.9-4.9,2.8-7.8,2.8h-39c-2.1,0-3.8-0.7-5.3-2.2   c-1.4-1.5-2.2-3.3-2.2-5.3c0-0.7,0.1-1.4,0.2-2.1l12.4-50c0.6-2.4,2.2-4.6,4.6-6.6c2.5-2,4.9-3,7.4-3h39c2.3,0,4.2,0.7,5.6,2   c1.5,1.3,2.2,3.1,2.2,5.3c0,0.8-0.1,1.6-0.3,2.5l-7.6,30.7h-32.6l-3.4,13.7c-0.1,0.5-0.2,0.9-0.2,1.1c0,0.8,0.2,1.3,0.7,1.5   c0.5,0.3,1.5,0.4,3.1,0.4c1.7,0,2.8-1.1,3.3-3.4l2-7.5h25.7L375,191.4z M357.1,160.7l3.3-13.3c0.5-2.3,0-3.4-1.7-3.4   c-1.6,0-2.7,0.1-3.3,0.5c-0.9,0.4-1.5,1.3-1.8,2.6l-3.4,13.7H357.1z"/>
	<path id="XMLID_00000084494848160178166150000004142463676493598648_" class="st2" d="M444.1,191.5c-0.6,2.4-2.1,4.6-4.6,6.6   c-2.7,2.1-5.1,3.2-7.4,3.2h-39c-2.2,0-4.1-0.7-5.5-2.2c-1.5-1.4-2.2-3.2-2.2-5.4c0-0.8,0.1-1.6,0.3-2.5l3.2-13h25.7l-1.8,7.5   c-0.1,0.6-0.2,1.1-0.2,1.5c0,1.3,0.6,1.9,1.8,1.9c1.6,0,2.7-0.1,3.3-0.4c0.9-0.4,1.6-1.3,1.9-2.6l2.5-10.2c0.1-0.5,0.2-0.9,0.2-1.2   c0-0.7-0.3-1.2-0.8-1.5c-1.1-0.7-5.5-2-13.1-3.6c-6.8-1.5-11.1-3.4-12.9-5.8c-1.5-2-2-4.2-1.4-6.6l3.9-15.5   c0.6-2.4,2.1-4.6,4.6-6.6c2.4-2,4.9-3,7.4-3h39c2.3,0,4.2,0.7,5.6,2c1.5,1.3,2.2,3.1,2.2,5.3c0,0.8-0.1,1.6-0.2,2.5l-3.3,13h-25.7   l1.9-7.5c0.1-0.6,0.1-1.1,0.1-1.5c0-1.3-0.6-1.9-1.8-1.9c-1.6,0-2.7,0.1-3.3,0.5c-0.9,0.4-1.6,1.3-1.9,2.6l-2.6,10.5   c-0.1,0.5-0.1,0.8-0.1,1.1c0,0.8,0.3,1.3,0.8,1.5c0.9,0.6,5.3,1.9,13.2,4c7.2,1.8,11.5,3.6,12.8,5.4c1.5,2,1.9,4.2,1.3,6.7   L444.1,191.5z"/>
	<path id="XMLID_00000018951529282659630500000004060157450622599852_" class="st2" d="M512,191.5c-0.6,2.4-2.1,4.6-4.6,6.6   c-2.7,2.1-5.1,3.2-7.4,3.2h-39c-2.2,0-4.1-0.7-5.5-2.2c-1.5-1.4-2.2-3.2-2.2-5.4c0-0.8,0.1-1.6,0.3-2.5l3.2-13h25.7l-1.8,7.5   c-0.2,0.6-0.2,1.1-0.2,1.5c0,1.3,0.6,1.9,1.8,1.9c1.6,0,2.7-0.1,3.3-0.4c0.9-0.4,1.6-1.3,1.9-2.6l2.5-10.2c0.2-0.5,0.2-0.9,0.2-1.2   c0-0.7-0.3-1.2-0.8-1.5c-1.1-0.7-5.5-2-13.1-3.6c-6.8-1.5-11.1-3.4-12.9-5.8c-1.5-2-2-4.2-1.4-6.6l3.9-15.5   c0.6-2.4,2.1-4.6,4.6-6.6c2.4-2,4.9-3,7.4-3h39c2.3,0,4.1,0.7,5.6,2c1.4,1.3,2.2,3.1,2.2,5.3c0,0.8-0.1,1.6-0.2,2.5l-3.3,13h-25.7   l1.9-7.5c0.1-0.6,0.1-1.1,0.1-1.5c0-1.3-0.6-1.9-1.8-1.9c-1.6,0-2.7,0.1-3.3,0.5c-0.9,0.4-1.5,1.3-1.9,2.6l-2.6,10.5   c-0.1,0.5-0.1,0.8-0.1,1.1c0,0.8,0.3,1.3,0.8,1.5c0.9,0.6,5.3,1.9,13.2,4c7.2,1.8,11.5,3.6,12.8,5.4c1.5,2,1.9,4.2,1.3,6.7   L512,191.5z"/>
	<path class="st1" d="M545.7,0v109.3h31.8l-5.9,23.6l29.4-23.6h88.6V0H545.7z M649.1,27.7l-2.4,9.8h-22.2l1.4-5.7   c0.1-0.5,0.2-0.8,0.2-1.1c0-1-0.5-1.5-1.5-1.5c-1.2,0-2,0.1-2.5,0.3c-0.7,0.3-1.1,0.9-1.4,2L609.1,78c-0.1,0.3-0.2,0.6-0.2,0.9   c0,0.6,0.2,1,0.6,1.1c0.4,0.2,1.2,0.3,2.4,0.3c1.3,0,2.1-0.9,2.5-2.6l1.5-5.7h22.2l-2.5,9.8c-0.5,2.1-1.7,3.8-3.4,5.3   c-1.8,1.4-3.7,2.1-5.9,2.1h-35.2c-1.5,0-2.9-0.5-4-1.7c-1.1-1.1-1.7-2.5-1.7-4c0-0.5,0.1-1,0.2-1.5l13.5-54.5   c0.5-1.8,1.6-3.5,3.5-5c1.9-1.5,3.7-2.2,5.5-2.2h35.2c1.7,0,3.1,0.5,4.3,1.5c1.1,1,1.7,2.3,1.7,4C649.4,26.4,649.3,27.1,649.1,27.7   z"/>
</g>
</svg>